PathFileType	3	(X/Y/Z)	D:\VICON_DB\Goncalves\Pilot01\09-03-2026\bw_sq_140_02.trc
DataRate	CameraRate	NumFrames	NumMarkers	Units	OrigDataRate	OrigDataStartFrame	OrigNumFrames
200.0	200.0	14	34	mm	200.0	1	703	
Frame#	Time	LASI			RASI			LPSI			RPSI			LTHI			LTHAP			LTHAD			LKNE			LKNM			LTIB			LTIAP			LTIAD			LANK			LMED			LHEE			LTOE			LFMH			LSMH			LVMH			RTHI			RTHAP			RTHAD			RKNE			RKNM			RTIB			RTIAP			RTIAD			RANK			RMED			RHEE			RTOE			RFMH			RSMH			RVMH			
		X1	Y1	Z1	X2	Y2	Z2	X3	Y3	Z3	X4	Y4	Z4	X5	Y5	Z5	X6	Y6	Z6	X7	Y7	Z7	X8	Y8	Z8	X9	Y9	Z9	X10	Y10	Z10	X11	Y11	Z11	X12	Y12	Z12	X13	Y13	Z13	X14	Y14	Z14	X15	Y15	Z15	X16	Y16	Z16	X17	Y17	Z17	X18	Y18	Z18	X19	Y19	Z19	X20	Y20	Z20	X21	Y21	Z21	X22	Y22	Z22	X23	Y23	Z23	X24	Y24	Z24	X25	Y25	Z25	X26	Y26	Z26	X27	Y27	Z27	X28	Y28	Z28	X29	Y29	Z29	X30	Y30	Z30	X31	Y31	Z31	X32	Y32	Z32	X33	Y33	Z33	X34	Y34	Z34	
1	0	88.688812	863.61609	-1089.9648	84.826401	865.00024	-1351.8256				297.48438	911.35773	-1248.0298	118.83402	680.5791	-1004.4811	131.99722	748.37299	-1017.9378	174.32295	625.89789	-973.46198	220.2173	469.44296	-957.61847				265.44037	287.52667	-894.76379	189.10156	352.87628	-938.15863	215.28265	263.26306	-884.8916	270.43082	77.333313	-845.26324				280.73447	56.013206	-910.15918	188.22386	72.915634	-818.62103	125.8716	45.388	-814.22205				173.31293	24.736803	-748.56842	162.8436	623.07831	-1458.3762	106.48981	735.80902	-1407.4786	93.792404	646.86218	-1423.4835	213.67482	486.29584	-1467.0983				249.42271	306.55984	-1533.1681	186.11662	345.32452	-1494.0596	191.46252	269.06229	-1521.0936	266.25912	63.066021	-1567.4644				276.68042	54.736145	-1516.3807	180.67278	70.886223	-1608.6102	122.45081	51.170567	-1612.2986				169.5838	18.949574	-1669.163
2	0.005	88.713432	863.61401	-1089.9756	84.857574	865.00659	-1351.829				296.24921	910.70959	-1249.0146	118.86469	680.57178	-1004.5012	132.01486	748.3736	-1017.9465	174.33438	625.89728	-973.46692	220.22545	469.44019	-957.62231				265.4404	287.52594	-894.75806	189.10895	352.87854	-938.14453	215.284	263.26083	-884.89404	270.42502	77.334846	-845.26105				280.7254	56.009094	-910.15747	188.21541	72.90358	-818.62665	125.87495	45.386726	-814.22125				173.31337	24.73595	-748.56989	162.86275	623.08118	-1458.3871	106.51487	735.81696	-1407.4896	93.810699	646.86786	-1423.4971	213.68971	486.29422	-1467.101				249.4332	306.55707	-1533.1741	186.11131	345.3432	-1494.0779	191.46593	269.05804	-1521.1022	266.26111	63.063248	-1567.4661				276.68021	54.736046	-1516.3821	180.67204	70.88372	-1608.6097	122.44547	51.176411	-1612.3026				169.58452	18.943762	-1669.1624
3	0.01	88.74173	863.61163	-1089.9885	84.893478	865.01398	-1351.833				295.04498	910.07782	-1249.9784	118.8998	680.56378	-1004.5242	132.03514	748.37402	-1017.9568	174.34756	625.89655	-973.47272	220.23491	469.43692	-957.62695				265.44058	287.52499	-894.75146	189.11725	352.88019	-938.13159	215.28569	263.25827	-884.89691	270.41769	77.336563	-845.25812				280.71533	56.004845	-910.15607	188.20746	72.891808	-818.63208	125.87783	45.385742	-814.22131				173.31387	24.735037	-748.57166	162.88487	623.08521	-1458.4011	106.5441	735.82605	-1407.5026	93.832581	646.87469	-1423.5127	213.70679	486.29279	-1467.1047				249.44543	306.5538	-1533.1809	186.10727	345.36194	-1494.0975	191.47096	269.05426	-1521.1117	266.26331	63.060165	-1567.4681				276.67972	54.736153	-1516.3844	180.67091	70.881538	-1608.6097	122.44017	51.182167	-1612.3068				169.58527	18.937153	-1669.1619
4	0.015	88.773453	863.60913	-1090.0034	84.933838	865.02228	-1351.8379				293.91965	909.48724	-1250.8838	118.93891	680.55548	-1004.5496	132.05794	748.37433	-1017.9688	174.36243	625.89569	-973.47937	220.24564	469.43317	-957.63245				265.44098	287.5238	-894.74414	189.12639	352.88113	-938.12048	215.28772	263.2554	-884.90033	270.40863	77.338493	-845.25439				280.7045	56.000568	-910.15503	188.20018	72.880623	-818.63727	125.88024	45.385063	-814.22217				173.31442	24.734131	-748.57361	162.90981	623.09058	-1458.4185	106.57735	735.83643	-1407.5172	93.857979	646.88257	-1423.53	213.72597	486.29163	-1467.1096				249.45926	306.55011	-1533.189	186.10506	345.37979	-1494.1177	191.47783	269.05124	-1521.1218	266.26581	63.056843	-1567.4707				276.67905	54.736519	-1516.3873	180.66928	70.879967	-1608.6102	122.43526	51.187481	-1612.3105				169.58609	18.929817	-1669.1615
5	0.02	88.80825	863.60663	-1090.0201	84.978279	865.03156	-1351.8439				292.90622	908.9549	-1251.7051	118.98125	680.54706	-1004.5769	132.08302	748.37445	-1017.9821	174.37883	625.89453	-973.48688	220.25754	469.42905	-957.63885				265.44156	287.52237	-894.73621	189.13623	352.88129	-938.11151	215.29016	263.25223	-884.90417	270.39792	77.340607	-845.25				280.69308	55.996357	-910.1546	188.19348	72.870171	-818.64215	125.88221	45.384686	-814.22345				173.315	24.733324	-748.57574	162.93735	623.09747	-1458.4397	106.6144	735.84808	-1407.5337	93.886696	646.89203	-1423.5493	213.74707	486.29083	-1467.1157				249.47456	306.54608	-1533.198	186.10507	345.39606	-1494.1377	191.48662	269.04907	-1521.1324	266.26862	63.053364	-1567.4734				276.6781	54.737167	-1516.3914	180.66695	70.879326	-1608.6118	122.43099	51.192051	-1612.3136				169.58699	18.921843	-1669.1613
6	0.025	88.845734	863.60431	-1090.0392	85.02639	865.04175	-1351.8508				292.0231	908.49042	-1252.4276	119.02571	680.53912	-1004.6052	132.11021	748.37433	-1017.997	174.39665	625.89343	-973.49524	220.27048	469.42456	-957.646				265.4425	287.52072	-894.72791	189.14677	352.88074	-938.1048	215.29301	263.24893	-884.90845	270.38556	77.342918	-845.24487				280.68127	55.992317	-910.15466	188.18742	72.860565	-818.64679	125.8837	45.384632	-814.22546				173.31561	24.732759	-748.57806	162.96713	623.1062	-1458.465	106.65488	735.86078	-1407.5516	93.918465	646.90289	-1423.5706	213.76991	486.29059	-1467.1229				249.49112	306.54178	-1533.2079	186.10744	345.41025	-1494.1573	191.49709	269.04776	-1521.1436	266.27161	63.049793	-1567.4768				276.67697	54.738056	-1516.3962	180.66374	70.879967	-1608.6141	122.42759	51.195751	-1612.3163				169.58797	18.913357	-1669.1608
7	0.03	88.885452	863.60229	-1090.0599	85.077721	865.0528	-1351.859				291.27756	908.09686	-1253.0457	119.0709	680.53265	-1004.6335	132.13925	748.37408	-1018.0134	174.41573	625.89215	-973.50433	220.28441	469.41992	-957.65417				265.44379	287.51898	-894.71942	189.15784	352.87973	-938.10034	215.29633	263.24557	-884.91327	270.37189	77.345398	-845.23938				280.66953	55.988541	-910.15521	188.18204	72.851906	-818.65137	125.88461	45.384933	-814.22803				173.31621	24.732611	-748.58081	162.99884	623.11688	-1458.4946	106.69844	735.87451	-1407.5714	93.953079	646.91534	-1423.5934	213.7943	486.29077	-1467.1307				249.50868	306.53723	-1533.2189	186.112	345.42242	-1494.1765	191.50899	269.04721	-1521.1549	266.2749	63.046173	-1567.4803				276.6759	54.739044	-1516.402	180.65964	70.882057	-1608.6176	122.42503	51.198685	-1612.3181				169.5891	18.904507	-1669.16
8	0.035	88.927002	863.60071	-1090.0822	85.131813	865.06494	-1351.8682				290.66867	907.77307	-1253.5602	119.11533	680.52808	-1004.6607	132.16995	748.3739	-1018.0308	174.43596	625.89105	-973.51416	220.2991	469.41516	-957.66315				265.4454	287.51712	-894.711	189.16937	352.87848	-938.0979	215.30003	263.24243	-884.91864	270.35715	77.348	-845.23383				280.6582	55.98513	-910.15649	188.17744	72.844276	-818.65619	125.88479	45.385662	-814.2312				173.31671	24.733068	-748.58386	163.03206	623.1297	-1458.5289	106.74467	735.88928	-1407.5927	93.990402	646.92914	-1423.6176	213.8199	486.29153	-1467.1398				249.52698	306.5325	-1533.2305	186.11853	345.43253	-1494.1951	191.522	269.04721	-1521.1666	266.27832	63.042507	-1567.4843				276.67502	54.739918	-1516.4084	180.65477	70.885468	-1608.6218	122.42319	51.201111	-1612.3197				169.59036	18.895514	-1669.1592
9	0.04	88.970024	863.59998	-1090.1061	85.188316	865.078	-1351.8787				290.18945	907.51459	-1253.9767	119.15776	680.52618	-1004.686	132.20209	748.37384	-1018.0494	174.45724	625.89001	-973.52466	220.31442	469.41046	-957.67285				265.44745	287.51538	-894.703	189.18126	352.8772	-938.09692	215.30417	263.23953	-884.92456	270.34204	77.350647	-845.22845				280.64792	55.98214	-910.15833	188.17372	72.837822	-818.66156	125.88403	45.386917	-814.23541				173.31715	24.734322	-748.58734	163.06638	623.1449	-1458.5679	106.79322	735.90479	-1407.6152	94.030266	646.94415	-1423.6425	213.84641	486.29276	-1467.1497				249.54575	306.52768	-1533.2428	186.12679	345.44055	-1494.2134	191.53592	269.04767	-1521.1786	266.28198	63.038788	-1567.4882				276.67438	54.740425	-1516.4153	180.64948	70.889854	-1608.6266	122.42196	51.203331	-1612.3208				169.59181	18.886612	-1669.1578
10	0.045	89.014229	863.60004	-1090.1312	85.246849	865.09229	-1351.8903				289.82898	907.31494	-1254.3037	119.19737	680.52734	-1004.7086	132.23555	748.37415	-1018.0687	174.47949	625.88928	-973.53589	220.33017	469.40588	-957.68323				265.44983	287.51376	-894.69568	189.19333	352.87619	-938.09717	215.30858	263.23706	-884.93103	270.32733	77.353188	-845.22369				280.63882	55.979565	-910.16064	188.17093	72.832741	-818.6676	125.88224	45.38876	-814.2406				173.31741	24.73654	-748.59155	163.10146	623.16248	-1458.6115	106.84368	735.92114	-1407.639	94.072556	646.96021	-1423.6672	213.87334	486.2944	-1467.1604				249.56476	306.52267	-1533.256	186.13655	345.44666	-1494.2308	191.5506	269.04861	-1521.191	266.28583	63.034996	-1567.4924				276.67419	54.740284	-1516.4224	180.64406	70.894875	-1608.6318	122.42122	51.205524	-1612.3217				169.59343	18.878023	-1669.1564
11	0.05	89.059441	863.60107	-1090.1573	85.307167	865.10779	-1351.9028				289.57394	907.16699	-1254.5511	119.23386	680.53137	-1004.7283	132.27017	748.375	-1018.0887	174.50264	625.88879	-973.54761	220.34607	469.40155	-957.69409				265.45245	287.51245	-894.68921	189.20543	352.87552	-938.09778	215.31314	263.23508	-884.93817	270.31387	77.355469	-845.22009				280.63107	55.977341	-910.16364	188.16887	72.829079	-818.6745	125.87943	45.391155	-814.24664				173.31755	24.739849	-748.59637	163.13692	623.18237	-1458.6602	106.89574	735.93811	-1407.6642	94.11702	646.97693	-1423.6915	213.9003	486.29636	-1467.1721				249.58374	306.51752	-1533.2695	186.14767	345.45074	-1494.248	191.56586	269.04993	-1521.2035	266.28992	63.031136	-1567.4971				276.67444	54.739239	-1516.4301	180.6389	70.900238	-1608.637	122.42099	51.207726	-1612.3223				169.59521	18.869928	-1669.1545
12	0.055	89.10556	863.60321	-1090.1842	85.369026	865.12476	-1351.9167				289.40979	907.06305	-1254.7307	119.2674	680.53827	-1004.7452	132.30592	748.37628	-1018.1092	174.5266	625.88867	-973.56006	220.36189	469.3974	-957.70551				265.45523	287.51147	-894.68365	189.21735	352.87534	-938.09851	215.31772	263.23346	-884.94586	270.30228	77.357376	-845.21796				280.6246	55.975372	-910.16699	188.16721	72.826675	-818.68243	125.87569	45.394024	-814.25354				173.31758	24.744312	-748.60181	163.17249	623.20447	-1458.7131	106.94907	735.95575	-1407.6903	94.163322	646.99457	-1423.7148	213.92676	486.29852	-1467.1852				249.6024	306.51218	-1533.2836	186.16	345.45282	-1494.2646	191.58142	269.05136	-1521.2164	266.29419	63.027203	-1567.5016				276.6752	54.73708	-1516.4375	180.63425	70.905685	-1608.6418	122.42136	51.209805	-1612.3224				169.59718	18.862503	-1669.1521
13	0.06	89.152603	863.60651	-1090.2115	85.43232	865.14331	-1351.9316				289.32181	906.99573	-1254.8533	119.29859	680.54755	-1004.7601	132.3427	748.37823	-1018.1299	174.55132	625.88861	-973.57306	220.37738	469.39346	-957.71722				265.45801	287.51071	-894.67908	189.22881	352.87555	-938.09918	215.32211	263.23221	-884.95416	270.29285	77.358925	-845.21735				280.61926	55.97356	-910.17059	188.16553	72.825272	-818.69165	125.87122	45.397243	-814.26105				173.31744	24.749931	-748.60779	163.20793	623.22864	-1458.7701	107.00341	735.97394	-1407.7174	94.211029	647.013	-1423.7375	213.95235	486.30099	-1467.1993				249.62061	306.50681	-1533.2981	186.17339	345.45276	-1494.2806	191.59695	269.0527	-1521.2295	266.29858	63.023232	-1567.5061				276.67636	54.733662	-1516.4454	180.63029	70.910988	-1608.6464	122.42254	51.211422	-1612.322				169.59923	18.855915	-1669.1495
14	0.065	89.200668	863.61072	-1090.2388	85.497002	865.16351	-1351.9473				289.29596	906.95801	-1254.9298	119.32835	680.55829	-1004.7734	132.38049	748.38068	-1018.1511	174.57669	625.88867	-973.58649	220.39232	469.38962	-957.72925				265.46066	287.51025	-894.67548	189.23956	352.87616	-938.09973	215.32617	263.23111	-884.96283	270.28546	77.360214	-845.21814				280.6149	55.971783	-910.17462	188.16354	72.824654	-818.70239	125.86616	45.400696	-814.2688				173.31726	24.756628	-748.6145	163.24326	623.25433	-1458.8301	107.05853	735.99286	-1407.7457	94.259697	647.03235	-1423.7592	213.97656	486.30377	-1467.2148				249.63808	306.50137	-1533.3131	186.18759	345.45062	-1494.2964	191.61197	269.05374	-1521.2434	266.30322	63.019245	-1567.5109				276.67786	54.72897	-1516.4531	180.62727	70.915962	-1608.6505	122.42477	51.212116	-1612.3207				169.60129	18.850338	-1669.1466
